<svg version="1.1"
     width="720" height="720"
     xmlns="http://www.w3.org/2000/svg"
     xmlns:xlink="http://www.w3.org/1999/xlink">
<defs>
  <path id="mypixel" d="M0,0 l15,0 l0,15 l-15,0 l0,-15z" stroke="none" fill="black"/>
  <path id="redpixel" d="M0,0 l15,0 l0,15 l-15,0 l0,-15z" stroke="none" fill="red"/>
  <path id="greenpixel" d="M0,0 l15,0 l0,15 l-15,0 l0,-15z" stroke="none" fill="green"/>
  <path id="thorn" d="M0,0 l24,0 l0,24 l-24,0 l0,-24z" stroke="none" fill="purple"/>
  <path id="emsquare" d="M0,0 l720,0 l0,720 l-720,0 l0,-720z"
        stroke="none" fill="#f0f8ff" fill-opacity="100%"/>
</defs>
<use href="#emsquare" x="0" y="0" />



<path d="M156,0 l83,0
                l0,15
                l16,0
                l0,98
                l-16,0
                l0,23
                l96,0
                l0,10
                l30,0
                l0,-10
                l17,0
                l0,-49
                l18,0
                l0,-19
                l20,0
                l0,-20
                l90,0
                l0,20
                l19,0
                l0,53
                l-20,0
                l0,20
                l-20,0
                l0,20
                l-52,0
                l0,19
                l-22,0
                l0,55
                l-12,0
                l0,100
                l-10,0
                l0,40
                l-16,0
                l0,40
                l-14,0
                l0,30
                l-23,0
                l0,-35
                l14,0
                l0,-40
                l16,0
                l0,-40
                l10,0
                l0,-100
                l12,0
                l0,-55
                l22,0
                l0,-19
                l22,0
                l0,-20
                l50,0
                l0,-20
                l19,0
                l0,-45
                l-80,0
                l0,20
                l-20,0
                l0,49
                l-17,0
                l0,19
                l-23,0
                l0,10
                l-30,0
                l0,-10
                l-105,0
                l0,-20
                l-14,0
                l0,-30
                l16,0
                l0,-86
                l-72,0
                l0,15
                l-19,0
                l0,70
                l19,0
                l0,18
                l19,0
                l0,24
                l19,0
                l0,30
                l-15,0
                l0,30
                l-15,0
                l0,120
                l15,0
                l0,30
                l13,0
                l0,30
                l7,0
                l0,30
                l15,0
                l0,38
                l292,0
                l0,22
                l-7,0
                l0,30
                l-8,0
                l0,30
                l-22,0
                l0,30
                l-8,0
                l0,60
                l-7,0
                l0,45
                l-8,0
                l0,15
                l-300,0
                l0,-15
                l-7,0
                l0,-45
                l-8,0
                l0,-60
                l-7,0
                l0,-30
                l-23,0
                l0,-30
                l-7,0
                l0,-30
                l-8,0
                l0,-22
                l105,0
                l0,-38
                l-15,0
                l0,-30
                l-7,0
                l0,-30
                l-13,0
                l0,-30
                l-15,0
                l0,-8
                l-23,0
                l0,-24
                l23,0
                l0,-56
                l-23,0
                l0,-24
                l23,0
                l0,-8
                l15,0
                l0,-30
                l15,0
                l0,-25
                l-19,0
                l0,-24
                l-19,0
                l0,-18
                l-19,0
                l0,-69
                l-21,0
                l0,-24
                l24,0
                l0,18
                l15,0
                l0,-23
                l20,0
                l0,-15z
                m 39,40
                l 24,0 0,24 -24,0 0,-24z
                m -30,41
                l 24,0 0,24 -24,0 0,-24z
                m 265,3
                l 24,0 0,24 -24,0 0,-24z
                m -170,94
                l 24,0 0,24 -24,0 0,-24z
                m -60,57
                l 24,0 0,24 -24,0 0,-24z
                m 90,25
                l 24,0 0,24 -24,0 0,-24z
                m -90,24
                l 24,0 0,24 -24,0 0,-24z
                m 150,3
                l 24,0 0,24 -24,0 0,-24z
                m -100,41
                l 24,0 0,24 -24,0 0,-24z
                m 45,57
                l 24,0 0,24 -24,0 0,-24z
                m -167,95
                l 0,30 l 30,0 l0,-30 l-30,0z
                m 60,0
                l0,30 l285,0 l0,-30 l-285,0z
                m-30,60
                l0,30 l7,0 l0,60 l8,0 l0,30 l30,0
                l0,-30 l-8,0 l0,-60 l-7,0 l0,-30 l-30,0z
                m60,0
                l0,30 l7,0 l0,60 l8,0 l0,30 l195,0
                l0,-30 l7,0 l0,-60 l8,0 l0,-30 l-225,0z
                " fill-rule="evenodd" />


</svg>